# xmcd CD database file
#
# Track frame offsets:
#	150
#	8267
#	48680
#	85762
#	128647
#	168600
#	225415
#	273712
#	326740
#
# Disc length: 4422 seconds
#
# Revision: 0
# Processed by: cddbd v1.5.1PL2 Copyright (c) Steve Scherf et al.
# Submitted via: CDex 1.51
#
DISCID=6e114409
DTITLE=Maynard Ferguson - Live at Ronnie's
DYEAR=2006
DGENRE=Jazz
TTITLE0=Blue Birdland (opener)
TTITLE1=The Girl From Ipanema
TTITLE2=Frame For The Blues
TTITLE3=But Beautiful
TTITLE4=Milestones
TTITLE5=I'm Old Fashioned
TTITLE6=Blues From Around Here
TTITLE7=MF Hit Medley
TTITLE8=Blue Birdland (walk off)
EXTD=YEAR: 2006
EXTT0=
EXTT1=
EXTT2=
EXTT3=
EXTT4=
EXTT5=
EXTT6=
EXTT7=
EXTT8=
PLAYORDER=
